# Blender3D v249 OBJ File: TTetris.blend
# www.blender3d.org
mtllib TTetris.mtl
v 1.528958 0.406852 0.560280
v 1.528958 -0.426481 0.560280
v -1.465624 -0.426481 0.560280
v -1.465624 0.406853 0.560280
v 1.528958 0.406852 1.553853
v 1.528957 -0.426481 1.553853
v -1.465625 -0.426480 1.553853
v -1.465624 0.406852 1.553853
v 0.531468 -0.459814 0.512800
v -0.468654 -0.459814 0.512800
v 0.531468 0.440186 0.512800
v -0.468654 0.440186 0.512800
v 0.531469 -0.447314 1.554582
v -0.468683 -0.447314 1.554582
v 0.531471 0.427685 1.554582
v -0.468682 0.427686 1.554582
v -0.466042 -0.426481 -0.443231
v -0.466041 0.406852 -0.443231
v 0.528354 -0.426481 -0.443231
v 0.528354 0.406852 -0.443231
v -0.466666 0.427686 -0.441356
v -0.466667 -0.447314 -0.441356
v 0.529130 -0.447314 -0.441356
v 0.529130 0.427686 -0.441356
v -1.433015 -0.447314 0.559402
v -1.433014 0.427686 0.559402
v -1.433015 -0.447314 1.554582
v -1.433014 0.427686 1.554582
v -1.339471 -0.447314 0.559402
v -1.339470 0.427686 0.559402
v -1.339471 -0.447314 1.554582
v -1.339471 0.427686 1.554582
v 1.501211 -0.447314 0.559402
v 1.501211 0.427686 0.559402
v 1.501210 -0.447314 1.554582
v 1.501212 0.427685 1.554582
v 1.415432 -0.447314 0.559402
v 1.415432 0.427686 0.559402
v 1.415431 -0.447314 1.554582
v 1.415433 0.427685 1.554582
v -0.466666 0.427686 -0.412074
v -0.466667 -0.447314 -0.412074
v 0.529130 -0.447314 -0.412074
v 0.529130 0.427686 -0.412074
v -0.466666 0.427686 -0.310168
v -0.466667 -0.447314 -0.310168
v 0.529130 -0.447314 -0.310168
v 0.529130 0.427686 -0.310168
v 1.529582 -0.447314 1.522147
v 1.529583 0.427685 1.522147
v -1.466354 -0.447314 1.522147
v -1.466353 0.427686 1.522147
v 0.531469 -0.509814 1.522148
v -0.468683 -0.509814 1.522148
v 0.531471 0.490185 1.522148
v -0.468682 0.490186 1.522148
v -1.433015 -0.509814 1.522147
v -1.433014 0.490186 1.522147
v -1.339471 -0.509814 1.522148
v -1.339471 0.490186 1.522148
v 1.501210 -0.509814 1.522147
v 1.501212 0.490185 1.522147
v 1.415431 -0.509814 1.522148
v 1.415433 0.490185 1.522148
v 1.529582 -0.447314 1.441272
v 1.529583 0.427685 1.441272
v -1.466354 -0.447314 1.441272
v -1.466353 0.427686 1.441272
v 0.531469 -0.509814 1.441272
v -0.468683 -0.509814 1.441272
v 0.531471 0.490185 1.441272
v -0.468682 0.490186 1.441272
v -1.433015 -0.509814 1.441272
v -1.433014 0.490186 1.441272
v -1.339471 -0.509814 1.441272
v -1.339471 0.490186 1.441272
v 1.501210 -0.509814 1.441272
v 1.501212 0.490185 1.441272
v 1.415431 -0.509814 1.441272
v 1.415433 0.490185 1.441272
v 1.529583 -0.447314 0.598773
v 1.529583 0.427686 0.598773
v -1.466354 -0.447314 0.598773
v -1.466353 0.427686 0.598773
v 0.531470 -0.509814 0.598773
v -0.468683 -0.509814 0.598773
v 0.531470 0.490186 0.598773
v -0.468682 0.490186 0.598773
v -1.433015 -0.509814 0.598773
v -1.433014 0.490186 0.598773
v -1.339471 -0.509814 0.598773
v -1.339470 0.490186 0.598773
v 1.501211 -0.509814 0.598773
v 1.501211 0.490186 0.598773
v 1.415432 -0.509814 0.598773
v 1.415432 0.490186 0.598773
v 1.529583 -0.447314 0.689960
v 1.529583 0.427686 0.689960
v -1.466354 -0.447314 0.689960
v -1.466353 0.427686 0.689960
v 0.531470 -0.509814 0.689960
v -0.468683 -0.509814 0.689960
v 0.531470 0.490186 0.689960
v -0.468682 0.490186 0.689960
v -1.433015 -0.509814 0.689960
v -1.433014 0.490186 0.689960
v -1.339471 -0.509814 0.689960
v -1.339470 0.490186 0.689960
v 1.501211 -0.509814 0.689960
v 1.501211 0.490186 0.689960
v 1.415432 -0.509814 0.689960
v 1.415432 0.490186 0.689960
v -0.437992 -0.509814 0.501808
v -0.437991 0.490186 0.501808
v -0.437992 -0.447314 1.554582
v -0.437991 0.427686 1.554582
v -0.437991 0.427686 -0.443231
v -0.437992 -0.447314 -0.443231
v -0.437991 0.490186 -0.441356
v -0.437992 -0.509814 -0.441356
v -0.437991 0.490186 -0.412074
v -0.437992 -0.509814 -0.412074
v -0.437991 0.490186 -0.310168
v -0.437992 -0.509814 -0.310168
v -0.437992 -0.509814 1.522148
v -0.437991 0.490186 1.522148
v -0.437992 -0.509814 1.441272
v -0.437991 0.490186 1.441272
v -0.437992 -0.509814 0.598773
v -0.437991 0.490186 0.598773
v -0.437992 -0.509814 0.689960
v -0.437991 0.490186 0.689960
v -0.348530 -0.509814 0.501808
v -0.348529 0.490186 0.501808
v -0.348530 -0.447314 1.554582
v -0.348529 0.427686 1.554582
v -0.348529 0.427686 -0.443231
v -0.348529 -0.447314 -0.443231
v -0.348529 0.490186 -0.441356
v -0.348530 -0.509814 -0.441356
v -0.348529 0.490186 -0.412074
v -0.348530 -0.509814 -0.412074
v -0.348529 0.490186 -0.310168
v -0.348530 -0.509814 -0.310168
v -0.348530 -0.509814 1.522148
v -0.348529 0.490186 1.522148
v -0.348530 -0.509814 1.441272
v -0.348529 0.490186 1.441272
v -0.348530 -0.509814 0.598773
v -0.348529 0.490186 0.598773
v -0.348530 -0.509814 0.689960
v -0.348529 0.490186 0.689960
v 0.494303 -0.509814 0.501808
v 0.494303 0.490186 0.501808
v 0.494303 -0.447314 1.554582
v 0.494304 0.427685 1.554582
v 0.494303 0.427686 -0.443231
v 0.494303 -0.447314 -0.443231
v 0.494303 0.490186 -0.441356
v 0.494303 -0.509814 -0.441356
v 0.494303 0.490186 -0.412074
v 0.494303 -0.509814 -0.412074
v 0.494303 0.490186 -0.310168
v 0.494303 -0.509814 -0.310168
v 0.494302 -0.509814 1.522148
v 0.494304 0.490185 1.522148
v 0.494302 -0.509814 1.441272
v 0.494304 0.490185 1.441272
v 0.494303 -0.509814 0.598773
v 0.494303 0.490186 0.598773
v 0.494303 -0.509814 0.689960
v 0.494303 0.490186 0.689960
v 0.407050 -0.509814 0.501808
v 0.407050 0.490186 0.501808
v 0.407049 -0.447314 1.554582
v 0.407050 0.427685 1.554582
v 0.407050 0.427686 -0.443231
v 0.407050 -0.447314 -0.443231
v 0.407050 0.490186 -0.441356
v 0.407050 -0.509814 -0.441356
v 0.407050 0.490186 -0.412074
v 0.407050 -0.509814 -0.412074
v 0.407050 0.490186 -0.310168
v 0.407050 -0.509814 -0.310168
v 0.407049 -0.509814 1.522147
v 0.407050 0.490185 1.522147
v 0.407049 -0.509814 1.441272
v 0.407050 0.490185 1.441272
v 0.407050 -0.509814 0.598773
v 0.407050 0.490186 0.598773
v 0.407050 -0.509814 0.689960
v 0.407050 0.490186 0.689960
v -0.501004 -0.447314 0.559402
v -0.501004 0.427686 0.559402
v -0.501004 -0.447314 1.554582
v -0.501004 0.427686 1.554582
v -0.501005 -0.509814 1.522148
v -0.501004 0.490186 1.522148
v -0.501005 -0.509814 1.441272
v -0.501004 0.490186 1.441272
v -0.501004 -0.509814 0.598773
v -0.501004 0.490186 0.598773
v -0.501004 -0.509814 0.689960
v -0.501004 0.490186 0.689960
v -0.587505 -0.447314 0.559402
v -0.587505 0.427686 0.559402
v -0.587506 -0.447314 1.554582
v -0.587505 0.427686 1.554582
v -0.587506 -0.509814 1.522147
v -0.587505 0.490186 1.522147
v -0.587506 -0.509814 1.441272
v -0.587505 0.490186 1.441272
v -0.587505 -0.509814 0.598773
v -0.587505 0.490186 0.598773
v -0.587505 -0.509814 0.689960
v -0.587505 0.490186 0.689960
v 0.568526 -0.447314 0.559402
v 0.568526 0.427686 0.559402
v 0.568525 -0.447314 1.554582
v 0.568526 0.427685 1.554582
v 0.568525 -0.509814 1.522148
v 0.568526 0.490185 1.522148
v 0.568525 -0.509814 1.441272
v 0.568526 0.490185 1.441272
v 0.568526 -0.509814 0.598773
v 0.568526 0.490186 0.598773
v 0.568525 -0.509814 0.689960
v 0.568526 0.490186 0.689960
v 0.652583 -0.447314 0.559402
v 0.652583 0.427686 0.559402
v 0.652582 -0.447314 1.554582
v 0.652583 0.427685 1.554582
v 0.652582 -0.509814 1.522147
v 0.652583 0.490185 1.522147
v 0.652582 -0.509814 1.441272
v 0.652583 0.490185 1.441272
v 0.652583 -0.509814 0.598773
v 0.652583 0.490186 0.598773
v 0.652583 -0.509814 0.689960
v 0.652583 0.490186 0.689960
vn 0.000000 1.000000 0.000000
vn 0.000000 0.948454 -0.316813
vn 0.000000 0.875484 -0.483200
vn 0.000000 -0.875484 -0.483200
vn 0.000000 -0.773614 -0.633656
vn 0.000000 -1.000000 0.000000
vn 0.000000 -0.923215 -0.384228
vn 0.000000 0.277383 -0.960753
vn 0.000000 0.332286 -0.943144
vn 0.281381 0.327525 -0.901944
vn 0.000000 -0.237556 -0.971374
vn 0.000000 -0.277383 -0.960753
vn 0.371044 -0.369366 -0.851955
vn 0.000000 0.854579 0.519303
vn 0.000000 0.734458 0.678640
vn 0.000000 -0.940642 0.339305
vn 0.000000 -0.854579 0.519303
vn 0.000000 0.284127 0.958770
vn 0.000000 0.157506 0.987487
vn 0.000000 0.237037 0.971465
vn 0.000000 -0.315043 0.949065
vn 0.000000 -0.203070 0.979156
vn 0.000000 -0.237037 0.971465
vn 0.242653 0.937254 -0.250313
vn 0.242653 -0.937254 -0.250313
vn 0.880276 0.318796 -0.351360
vn 0.917631 -0.318064 -0.238197
vn 0.000000 0.203070 0.979156
vn 0.000000 -0.284127 0.958770
vn 0.000000 0.923215 -0.384228
vn 0.000000 0.773614 -0.633656
vn 0.000000 -0.948454 -0.316813
vn -0.396802 0.367107 -0.841273
vn 0.000000 0.221534 -0.975127
vn -0.301431 -0.323069 -0.897061
vn 0.000000 -0.316721 -0.948485
vn 0.000000 0.910977 0.412397
vn 0.000000 0.896268 0.443434
vn 0.000000 -0.734458 0.678610
vn 0.000000 0.270760 0.962615
vn 0.000000 -0.237068 0.971465
vn 0.000000 -0.189428 0.981872
vn -0.262886 0.933470 -0.243843
vn -0.262886 -0.933470 -0.243843
vn -0.935667 0.280770 -0.213630
vn -0.906125 -0.281472 -0.315683
vn 0.402997 0.913724 -0.051515
vn 0.472091 -0.879452 -0.060366
vn 0.432661 -0.901517 0.000000
vn 0.402478 -0.915403 0.000000
vn 0.506577 0.862178 0.000000
vn 0.000000 -0.615192 -0.788354
vn 0.534074 -0.603076 -0.592456
vn 0.000000 -0.717612 -0.696402
vn 0.000000 0.717612 -0.696402
vn 0.275399 0.756371 -0.593310
vn 0.000000 -0.014985 -0.999878
vn 0.015320 -0.025361 -0.999542
vn 0.000000 -0.012848 -0.999908
vn 0.000000 0.012848 -0.999908
vn 0.000000 0.017975 -0.999817
vn 0.015320 0.025361 -0.999542
vn 0.967864 -0.251442 0.000000
vn 0.952422 -0.304666 -0.002075
vn 0.967864 0.251442 0.000000
vn 0.962310 0.271889 -0.002930
vn 0.804865 -0.126988 -0.579669
vn 0.877316 0.200293 -0.436079
vn 0.277932 -0.024873 -0.960265
vn 0.567217 0.026093 -0.823145
vn -0.434614 0.899411 -0.046297
vn -0.434614 -0.899411 -0.046297
vn -0.539903 -0.841700 0.000000
vn -0.539903 0.841700 0.000000
vn -0.428388 0.903562 0.000000
vn -0.292734 -0.744377 -0.600146
vn -0.467452 0.477584 -0.743858
vn -0.018616 -0.025361 -0.999481
vn -0.021699 0.024567 -0.999451
vn -0.976959 -0.213416 0.000000
vn -0.972594 -0.232398 -0.002533
vn -0.976959 0.213416 0.000000
vn -0.965575 0.260048 -0.001801
vn -0.890896 -0.173101 -0.419843
vn -0.826807 0.112247 -0.551134
vn -0.598315 -0.026673 -0.800806
vn -0.292703 0.025269 -0.955840
vn 0.616352 0.787439 0.000000
vn 0.429701 0.902951 0.000000
vn 0.548357 0.687643 -0.475814
vn 0.423597 -0.834071 -0.353374
vn 0.616352 -0.787439 0.000000
vn 0.429701 -0.902951 0.000000
vn 0.970367 0.241523 0.000000
vn 0.985595 0.168981 0.000000
vn 0.922300 0.323801 -0.210822
vn 0.957976 -0.254677 -0.131901
vn 0.985595 -0.168981 0.000000
vn 0.970367 -0.241523 0.000000
vn -0.514450 0.857509 0.000000
vn -0.396771 0.844050 -0.360668
vn -0.514450 -0.857509 0.000000
vn -0.517472 -0.708609 -0.479629
vn -0.970122 0.242561 0.000000
vn -0.931455 0.324290 -0.164953
vn -0.970122 -0.242561 0.000000
vn -0.935942 -0.295755 -0.191015
vn 0.263680 0.306070 -0.914731
vn 0.218451 -0.345714 -0.912534
vn 0.849605 0.238227 -0.470534
vn 0.540361 -0.242042 -0.805841
vn -0.197028 0.352763 -0.914701
vn -0.237434 -0.315317 -0.918790
vn -0.518815 0.254158 -0.816187
vn -0.837825 -0.252174 -0.484146
vn 0.417066 0.821741 0.388256
vn 0.545061 -0.660787 0.515976
vn 0.942198 0.287057 0.172735
vn 0.942503 -0.262337 0.206885
vn -0.513840 0.682333 0.519944
vn -0.389508 -0.831782 0.395459
vn -0.931944 0.287942 0.220313
vn -0.928709 -0.318155 0.190313
vn 0.236518 0.360363 0.902310
vn 0.206793 -0.235572 0.949583
vn 0.705039 0.190466 0.683065
vn 0.688772 -0.308176 0.656148
vn -0.217322 0.284524 0.933683
vn -0.180975 -0.313852 0.932035
vn -0.826716 0.241340 0.508164
vn -0.502640 -0.241005 0.830195
g Cube_Cube.001_Material.001
usemtl Material.001
s 1
f 236//1 80//1 112//1
f 236//1 112//1 240//1
f 224//1 236//1 240//1
f 224//1 240//1 228//1
f 240//1 112//1 96//2
f 240//1 96//2 238//3
f 228//1 240//1 238//3
f 228//1 238//3 226//3
f 237//4 95//5 111//6
f 237//4 111//6 239//6
f 225//7 237//4 239//6
f 225//7 239//6 227//6
f 239//6 111//6 79//6
f 239//6 79//6 235//6
f 227//6 239//6 235//6
f 227//6 235//6 223//6
f 238//3 96//2 38//8
f 238//3 38//8 230//9
f 226//3 238//3 230//9
f 226//3 230//9 218//10
f 229//11 37//12 95//5
f 229//11 95//5 237//4
f 217//13 229//11 237//4
f 217//13 237//4 225//7
f 234//14 64//15 80//1
f 234//14 80//1 236//1
f 222//14 234//14 236//1
f 222//14 236//1 224//1
f 235//6 79//6 63//16
f 235//6 63//16 233//17
f 223//6 235//6 233//17
f 223//6 233//17 221//17
f 232//18 40//19 64//15
f 232//18 64//15 234//14
f 220//20 232//18 234//14
f 220//20 234//14 222//14
f 233//17 63//16 39//21
f 233//17 39//21 231//22
f 221//17 233//17 231//22
f 221//17 231//22 219//23
f 232//18 220//20 231//22
f 220//20 219//23 231//22
f 40//19 232//18 231//22
f 40//19 231//22 39//21
f 229//11 217//13 218//10
f 229//11 218//10 230//9
f 37//12 229//11 38//8
f 229//11 230//9 38//8
f 71//1 224//1 228//1
f 71//1 228//1 103//1
f 103//1 228//1 226//3
f 103//1 226//3 87//24
f 85//25 225//7 227//6
f 85//25 227//6 101//6
f 101//6 227//6 223//6
f 101//6 223//6 69//6
f 87//24 226//3 218//10
f 87//24 218//10 11//26
f 9//27 217//13 85//25
f 217//13 225//7 85//25
f 55//14 222//14 224//1
f 55//14 224//1 71//1
f 69//6 223//6 221//17
f 69//6 221//17 53//17
f 15//28 220//20 222//14
f 15//28 222//14 55//14
f 53//17 221//17 219//23
f 53//17 219//23 13//29
f 220//20 15//28 219//23
f 15//28 13//29 219//23
f 217//13 9//27 11//26
f 217//13 11//26 218//10
f 212//1 200//1 204//1
f 212//1 204//1 216//1
f 76//1 212//1 108//1
f 212//1 216//1 108//1
f 216//1 204//1 202//30
f 216//1 202//30 214//3
f 108//1 216//1 214//3
f 108//1 214//3 92//31
f 213//4 201//4 203//6
f 213//4 203//6 215//6
f 91//32 213//4 215//6
f 91//32 215//6 107//6
f 215//6 203//6 199//6
f 215//6 199//6 211//6
f 107//6 215//6 211//6
f 107//6 211//6 75//6
f 214//3 202//30 194//33
f 214//3 194//33 206//8
f 92//31 214//3 206//8
f 92//31 206//8 30//34
f 205//12 193//35 201//4
f 205//12 201//4 213//4
f 29//36 205//12 213//4
f 29//36 213//4 91//32
f 210//37 198//14 200//1
f 210//37 200//1 212//1
f 60//38 210//37 212//1
f 60//38 212//1 76//1
f 211//6 199//6 197//17
f 211//6 197//17 209//17
f 75//6 211//6 209//17
f 75//6 209//17 59//39
f 208//40 196//20 198//14
f 208//40 198//14 210//37
f 32//20 208//40 60//38
f 208//40 210//37 60//38
f 209//17 197//17 195//23
f 209//17 195//23 207//41
f 59//39 209//17 207//41
f 59//39 207//41 31//42
f 208//40 32//20 31//42
f 208//40 31//42 207//41
f 196//20 208//40 207//41
f 196//20 207//41 195//23
f 205//12 29//36 30//34
f 205//12 30//34 206//8
f 193//35 205//12 206//8
f 193//35 206//8 194//33
f 200//1 72//1 104//1
f 200//1 104//1 204//1
f 204//1 104//1 88//43
f 204//1 88//43 202//30
f 201//4 86//44 102//6
f 201//4 102//6 203//6
f 203//6 102//6 70//6
f 203//6 70//6 199//6
f 202//30 88//43 194//33
f 88//43 12//45 194//33
f 193//35 10//46 86//44
f 193//35 86//44 201//4
f 198//14 56//14 72//1
f 198//14 72//1 200//1
f 199//6 70//6 54//17
f 199//6 54//17 197//17
f 196//20 16//20 56//14
f 196//20 56//14 198//14
f 197//17 54//17 14//23
f 197//17 14//23 195//23
f 16//20 196//20 195//23
f 16//20 195//23 14//23
f 10//46 193//35 194//33
f 10//46 194//33 12//45
f 188//1 168//1 172//1
f 188//1 172//1 192//1
f 148//1 188//1 192//1
f 148//1 192//1 152//1
f 192//1 172//1 170//1
f 192//1 170//1 190//1
f 152//1 192//1 190//1
f 152//1 190//1 150//1
f 189//6 169//6 171//6
f 189//6 171//6 191//6
f 149//6 189//6 191//6
f 149//6 191//6 151//6
f 191//6 171//6 167//6
f 191//6 167//6 187//6
f 151//6 191//6 187//6
f 151//6 187//6 147//6
f 190//1 170//1 154//47
f 190//1 154//47 174//1
f 150//1 190//1 174//1
f 150//1 174//1 134//1
f 173//6 153//48 169//6
f 173//6 169//6 189//6
f 133//6 173//6 189//6
f 133//6 189//6 149//6
f 186//14 166//14 168//1
f 186//14 168//1 188//1
f 146//14 186//14 188//1
f 146//14 188//1 148//1
f 187//6 167//6 165//17
f 187//6 165//17 185//17
f 147//6 187//6 185//17
f 147//6 185//17 145//17
f 176//28 156//18 166//14
f 176//28 166//14 186//14
f 136//20 176//28 186//14
f 136//20 186//14 146//14
f 185//17 165//17 155//22
f 185//17 155//22 175//29
f 145//17 185//17 175//29
f 145//17 175//29 135//23
f 182//6 162//49 184//6
f 162//49 164//50 184//6
f 142//6 182//6 184//6
f 142//6 184//6 144//6
f 184//6 164//50 173//6
f 164//50 153//48 173//6
f 144//6 184//6 173//6
f 144//6 173//6 133//6
f 181//1 141//1 143//1
f 181//1 143//1 183//1
f 161//51 181//1 183//1
f 161//51 183//1 163//51
f 183//1 143//1 174//1
f 143//1 134//1 174//1
f 163//51 183//1 174//1
f 163//51 174//1 154//47
f 180//52 160//53 162//49
f 180//52 162//49 182//6
f 140//54 180//52 182//6
f 140//54 182//6 142//6
f 179//55 139//55 141//1
f 179//55 141//1 181//1
f 159//56 179//55 181//1
f 159//56 181//1 161//51
f 178//57 158//58 180//52
f 158//58 160//53 180//52
f 138//59 178//57 180//52
f 138//59 180//52 140//54
f 177//60 137//61 139//55
f 177//60 139//55 179//55
f 157//62 177//60 179//55
f 157//62 179//55 159//56
f 178//57 138//59 177//60
f 138//59 137//61 177//60
f 158//58 178//57 177//60
f 158//58 177//60 157//62
f 176//28 136//20 135//23
f 176//28 135//23 175//29
f 156//18 176//28 155//22
f 176//28 175//29 155//22
f 168//1 71//1 103//1
f 168//1 103//1 172//1
f 172//1 103//1 87//24
f 172//1 87//24 170//1
f 169//6 85//25 101//6
f 169//6 101//6 171//6
f 171//6 101//6 69//6
f 171//6 69//6 167//6
f 170//1 87//24 154//47
f 87//24 11//26 154//47
f 153//48 9//27 85//25
f 153//48 85//25 169//6
f 166//14 55//14 71//1
f 166//14 71//1 168//1
f 167//6 69//6 53//17
f 167//6 53//17 165//17
f 156//18 15//28 55//14
f 156//18 55//14 166//14
f 165//17 53//17 13//29
f 165//17 13//29 155//22
f 162//49 43//63 47//64
f 162//49 47//64 164//50
f 164//50 47//64 153//48
f 47//64 9//27 153//48
f 44//65 161//51 163//51
f 44//65 163//51 48//66
f 48//66 163//51 154//47
f 48//66 154//47 11//26
f 160//53 23//67 43//63
f 160//53 43//63 162//49
f 24//68 159//56 161//51
f 24//68 161//51 44//65
f 158//58 19//69 23//67
f 158//58 23//67 160//53
f 20//70 157//62 24//68
f 157//62 159//56 24//68
f 19//69 158//58 157//62
f 19//69 157//62 20//70
f 15//28 156//18 155//22
f 15//28 155//22 13//29
f 128//1 148//1 152//1
f 128//1 152//1 132//1
f 132//1 152//1 150//1
f 132//1 150//1 130//1
f 129//6 149//6 151//6
f 129//6 151//6 131//6
f 131//6 151//6 147//6
f 131//6 147//6 127//6
f 130//1 150//1 134//1
f 130//1 134//1 114//71
f 113//72 133//6 149//6
f 113//72 149//6 129//6
f 126//14 146//14 148//1
f 126//14 148//1 128//1
f 127//6 147//6 145//17
f 127//6 145//17 125//17
f 116//20 136//20 146//14
f 116//20 146//14 126//14
f 125//17 145//17 135//23
f 125//17 135//23 115//23
f 122//73 142//6 144//6
f 122//73 144//6 124//73
f 124//73 144//6 133//6
f 124//73 133//6 113//72
f 141//1 121//74 123//75
f 141//1 123//75 143//1
f 143//1 123//75 114//71
f 143//1 114//71 134//1
f 120//76 140//54 142//6
f 120//76 142//6 122//73
f 139//55 119//77 121//74
f 139//55 121//74 141//1
f 118//78 138//59 140//54
f 118//78 140//54 120//76
f 137//61 117//79 119//77
f 137//61 119//77 139//55
f 138//59 118//78 117//79
f 138//59 117//79 137//61
f 136//20 116//20 115//23
f 136//20 115//23 135//23
f 72//1 128//1 104//1
f 128//1 132//1 104//1
f 104//1 132//1 130//1
f 104//1 130//1 88//43
f 86//44 129//6 131//6
f 86//44 131//6 102//6
f 102//6 131//6 127//6
f 102//6 127//6 70//6
f 88//43 130//1 114//71
f 88//43 114//71 12//45
f 10//46 113//72 86//44
f 113//72 129//6 86//44
f 56//14 126//14 128//1
f 56//14 128//1 72//1
f 70//6 127//6 125//17
f 70//6 125//17 54//17
f 16//20 116//20 126//14
f 16//20 126//14 56//14
f 54//17 125//17 115//23
f 54//17 115//23 14//23
f 42//80 122//73 124//73
f 42//80 124//73 46//81
f 46//81 124//73 113//72
f 46//81 113//72 10//46
f 121//74 41//82 45//83
f 121//74 45//83 123//75
f 123//75 45//83 114//71
f 45//83 12//45 114//71
f 22//84 120//76 122//73
f 22//84 122//73 42//80
f 119//77 21//85 41//82
f 119//77 41//82 121//74
f 17//86 118//78 22//84
f 118//78 120//76 22//84
f 117//79 18//87 21//85
f 117//79 21//85 119//77
f 118//78 17//86 18//87
f 118//78 18//87 117//79
f 116//20 16//20 14//23
f 116//20 14//23 115//23
f 112//1 80//1 78//88
f 112//1 78//88 110//89
f 96//2 112//1 110//89
f 96//2 110//89 94//90
f 111//6 95//5 93//91
f 111//6 93//91 109//92
f 79//6 111//6 109//92
f 79//6 109//92 77//93
f 110//89 78//88 98//94
f 78//88 66//95 98//94
f 94//90 110//89 98//94
f 94//90 98//94 82//96
f 109//92 93//91 81//97
f 109//92 81//97 97//98
f 77//93 109//92 65//99
f 109//92 97//98 65//99
f 106//100 74//100 76//1
f 106//100 76//1 108//1
f 90//101 106//100 108//1
f 90//101 108//1 92//31
f 105//102 89//103 91//32
f 105//102 91//32 107//6
f 73//102 105//102 107//6
f 73//102 107//6 75//6
f 100//104 68//104 74//100
f 100//104 74//100 106//100
f 84//105 100//104 106//100
f 84//105 106//100 90//101
f 99//106 83//107 89//103
f 99//106 89//103 105//102
f 67//106 99//106 105//102
f 67//106 105//102 73//102
f 99//106 67//106 68//104
f 99//106 68//104 100//104
f 83//107 99//106 100//104
f 83//107 100//104 84//105
f 98//94 66//95 97//98
f 66//95 65//99 97//98
f 82//96 98//94 81//97
f 98//94 97//98 81//97
f 38//8 96//2 94//90
f 38//8 94//90 34//108
f 95//5 37//12 33//109
f 95//5 33//109 93//91
f 82//96 1//110 34//108
f 82//96 34//108 94//90
f 93//91 33//109 81//97
f 33//109 2//111 81//97
f 26//112 90//101 92//31
f 26//112 92//31 30//34
f 89//103 25//113 29//36
f 89//103 29//36 91//32
f 4//114 84//105 26//112
f 84//105 90//101 26//112
f 83//107 3//115 25//113
f 83//107 25//113 89//103
f 3//115 83//107 84//105
f 3//115 84//105 4//114
f 1//110 82//96 81//97
f 1//110 81//97 2//111
f 80//1 64//15 62//116
f 80//1 62//116 78//88
f 63//16 79//6 77//93
f 63//16 77//93 61//117
f 78//88 62//116 50//118
f 78//88 50//118 66//95
f 61//117 77//93 65//99
f 61//117 65//99 49//119
f 74//100 58//120 60//38
f 74//100 60//38 76//1
f 57//121 73//102 75//6
f 57//121 75//6 59//39
f 68//104 52//122 58//120
f 68//104 58//120 74//100
f 51//123 67//106 73//102
f 51//123 73//102 57//121
f 67//106 51//123 52//122
f 67//106 52//122 68//104
f 66//95 50//118 65//99
f 50//118 49//119 65//99
f 64//15 40//19 36//124
f 64//15 36//124 62//116
f 39//21 63//16 61//117
f 39//21 61//117 35//125
f 62//116 36//124 50//118
f 36//124 5//126 50//118
f 35//125 61//117 49//119
f 35//125 49//119 6//127
f 58//120 28//128 32//20
f 58//120 32//20 60//38
f 27//129 57//121 59//39
f 27//129 59//39 31//42
f 52//122 8//130 28//128
f 52//122 28//128 58//120
f 7//131 51//123 27//129
f 51//123 57//121 27//129
f 51//123 7//131 8//130
f 51//123 8//130 52//122
f 50//118 5//126 49//119
f 5//126 6//127 49//119
f 47//64 43//63 44//65
f 47//64 44//65 48//66
f 9//27 47//64 48//66
f 9//27 48//66 11//26
f 45//83 41//82 42//80
f 45//83 42//80 46//81
f 12//45 45//83 46//81
f 12//45 46//81 10//46
f 43//63 23//67 24//68
f 43//63 24//68 44//65
f 41//82 21//85 22//84
f 41//82 22//84 42//80
f 36//124 40//19 35//125
f 40//19 39//21 35//125
f 33//109 37//12 38//8
f 33//109 38//8 34//108
f 5//126 36//124 35//125
f 5//126 35//125 6//127
f 34//108 1//110 2//111
f 34//108 2//111 33//109
f 32//20 28//128 27//129
f 32//20 27//129 31//42
f 29//36 25//113 26//112
f 29//36 26//112 30//34
f 28//128 8//130 7//131
f 28//128 7//131 27//129
f 25//113 3//115 4//114
f 25//113 4//114 26//112
f 23//67 19//69 20//70
f 23//67 20//70 24//68
f 21//85 18//87 17//86
f 21//85 17//86 22//84
