# Blender3D v249 OBJ File: 
# www.blender3d.org
o EggBorder
v 522 394 0
v 522 -394 0
v -522 -394 0
v -522 394 0
v 398 226 0
v 447 178 0
v 483 123 0
v 505 64 0
v 512 1 0
v 505 -61 0
v 483 -119 0
v 447 -175 0
v 398 -223 0
v 339 -262 0
v 271 -292 0
v -44 -377 0
v -121 -384 0
v -197 -377 0
v -270 -355 0
v -336 -319 0
v -397 -272 0
v -446 -213 0
v -482 -147 0
v -504 -75 0
v -512 0 0
v -504 75 0
v -482 147 0
v -446 213 0
v -397 272 0
v -336 319 0
v -270 354 0
v -197 377 0
v -121 384 0
v -44 377 0
v 271 295 0
v 339 265 0
vn 0 0 1
vn 0 0 1
vn 0 0 1
vn 0 0 1
vn 0 0 1
vn 0 0 1
vn 0 0 1
vn 0 0 1
vn 0 0 1
vn 0 0 1
vn 0 0 1
vn 0 0 1
vn 0 0 1
vn 0 0 1
vn 0 0 1
vn 0 0 1
vn 0 0 1
vn 0 0 1
vn 0 0 1
vn 0 0 1
vn 0 0 1
vn 0 0 1
vn 0 0 1
vn 0 0 1
vn 0 0 1
vn 0 0 1
vn 0 0 1
vn 0 0 1
vn 0 0 1
vn 0 0 1
vn 0 0 1
vn 0 0 1
vn 0 0 1
vn 0 0 1
vn 0 0 1
vn 0 0 1
usemtl (null)
s 0
f 1//1 4//2 33//3
f 1//1 33//3 34//4
f 1//1 34//4 35//5
f 1//1 35//5 36//6
f 1//1 36//6 5//7
f 1//1 5//7 6//8
f 1//1 6//8 7//9
f 1//1 7//9 8//10
f 1//1 8//10 9//11
f 1//1 9//11 2//12
f 2//12 9//11 10//13
f 2//12 10//13 11//14
f 2//12 11//14 12//15
f 2//12 12//15 13//16
f 2//12 13//16 14//17
f 2//12 14//17 15//18
f 2//12 15//18 16//19
f 2//12 16//19 17//20
f 2//12 17//20 3//21
f 3//21 17//20 18//22
f 3//21 18//22 19//23
f 3//21 19//23 20//24
f 3//21 20//24 21//25
f 3//21 21//25 22//26
f 3//21 22//26 23//27
f 3//21 23//27 24//28
f 3//21 24//28 25//29
f 3//21 25//29 4//2
f 4//2 25//29 26//30
f 4//2 26//30 27//31
f 4//2 27//31 28//32
f 4//2 28//32 29//33
f 4//2 29//33 30//34
f 4//2 30//34 31//35
f 4//2 31//35 32//36
f 4//2 32//36 33//3
# Rectangle1 -398.4 -268.8
# Rectangle2 318.4 -268.8
# Rectangle3 -398.4 268.8
# Rectangle4 318.4 268.8

